<svg width="1440" height="1353" viewBox="0 0 1440 1353" fill="none" xmlns="http://www.w3.org/2000/svg">
<rect width="1440" height="1353" fill="#081158"/>
<path d="M1438 1322.12C1378.46 1373.25 1220.84 1386.35 1066.69 1029.76C874.008 584.015 373.306 612.774 203.124 454.608C66.9786 328.075 12.3141 101.531 2.00004 4.0752" stroke="#5B95D2"/>
<path d="M1438 811.612C1391.19 842.931 1267.28 850.959 1146.1 632.483C994.624 359.391 601.004 377.01 467.216 280.106C360.188 202.582 317.214 63.7841 309.104 4.0752" stroke="#5B95D2"/>
<path d="M1438 412.486C1403.45 428.326 1312.01 432.385 1222.57 321.891C1110.77 183.775 820.268 192.686 721.528 143.677C642.536 104.469 610.82 34.2727 604.836 4.0752" stroke="#5B95D2"/>
<path d="M1438 1043.66C1385.06 1083.99 1244.92 1094.32 1107.87 813.063C936.55 461.491 491.372 484.174 340.062 359.424C219.012 259.624 170.41 80.9415 161.24 4.0752" stroke="#5B95D2"/>
<path d="M1438 644.533C1396.38 669.376 1286.2 675.742 1178.45 502.468C1043.76 285.877 693.768 299.851 574.81 222.996C479.642 161.512 441.432 51.4302 434.222 4.0752" stroke="#5B95D2"/>
<path d="M1438 208.28C1412.06 216.2 1343.4 218.23 1276.24 162.983C1192.3 93.925 974.174 98.3805 900.034 73.8761C840.724 54.2723 816.91 19.1739 812.416 4.0752" stroke="#5B95D2"/>
</svg>
